<svg width="220" height="62" viewBox="0 0 220 62" fill="none" xmlns="http://www.w3.org/2000/svg">
<g clip-path="url(#clip0_32_45)">
<rect x="4" width="220" height="62" fill="#4F5560"/>
<path d="M78.125 12V42H72.4805V12H78.125ZM81.875 31.6484V31.2383C81.875 29.6888 82.0964 28.263 82.5391 26.9609C82.9818 25.6458 83.6263 24.5065 84.4727 23.543C85.319 22.5794 86.3607 21.8307 87.5977 21.2969C88.8346 20.75 90.2539 20.4766 91.8555 20.4766C93.457 20.4766 94.8828 20.75 96.1328 21.2969C97.3828 21.8307 98.431 22.5794 99.2773 23.543C100.137 24.5065 100.788 25.6458 101.23 26.9609C101.673 28.263 101.895 29.6888 101.895 31.2383V31.6484C101.895 33.1849 101.673 34.6107 101.23 35.9258C100.788 37.2279 100.137 38.3672 99.2773 39.3438C98.431 40.3073 97.3893 41.056 96.1523 41.5898C94.9154 42.1237 93.4961 42.3906 91.8945 42.3906C90.293 42.3906 88.8672 42.1237 87.6172 41.5898C86.3802 41.056 85.332 40.3073 84.4727 39.3438C83.6263 38.3672 82.9818 37.2279 82.5391 35.9258C82.0964 34.6107 81.875 33.1849 81.875 31.6484ZM87.5 31.2383V31.6484C87.5 32.5339 87.5781 33.3607 87.7344 34.1289C87.8906 34.8971 88.138 35.5742 88.4766 36.1602C88.8281 36.7331 89.2839 37.1823 89.8438 37.5078C90.4036 37.8333 91.0872 37.9961 91.8945 37.9961C92.6758 37.9961 93.3464 37.8333 93.9062 37.5078C94.4661 37.1823 94.9154 36.7331 95.2539 36.1602C95.5924 35.5742 95.8398 34.8971 95.9961 34.1289C96.1654 33.3607 96.25 32.5339 96.25 31.6484V31.2383C96.25 30.3789 96.1654 29.5716 95.9961 28.8164C95.8398 28.0482 95.5859 27.3711 95.2344 26.7852C94.8958 26.1862 94.4466 25.7174 93.8867 25.3789C93.3268 25.0404 92.6497 24.8711 91.8555 24.8711C91.0612 24.8711 90.3841 25.0404 89.8242 25.3789C89.2773 25.7174 88.8281 26.1862 88.4766 26.7852C88.138 27.3711 87.8906 28.0482 87.7344 28.8164C87.5781 29.5716 87.5 30.3789 87.5 31.2383ZM118.73 20.8672H123.828V41.2969C123.828 43.224 123.398 44.8581 122.539 46.1992C121.693 47.5534 120.508 48.5755 118.984 49.2656C117.461 49.9688 115.69 50.3203 113.672 50.3203C112.786 50.3203 111.849 50.2031 110.859 49.9688C109.883 49.7344 108.945 49.3698 108.047 48.875C107.161 48.3802 106.419 47.7552 105.82 47L108.301 43.6797C108.952 44.4349 109.707 45.0208 110.566 45.4375C111.426 45.8672 112.376 46.082 113.418 46.082C114.434 46.082 115.293 45.8932 115.996 45.5156C116.699 45.151 117.24 44.6107 117.617 43.8945C117.995 43.1914 118.184 42.3385 118.184 41.3359V25.75L118.73 20.8672ZM104.512 31.6875V31.2773C104.512 29.6628 104.707 28.1979 105.098 26.8828C105.501 25.5547 106.068 24.4154 106.797 23.4648C107.539 22.5143 108.438 21.7786 109.492 21.2578C110.547 20.737 111.738 20.4766 113.066 20.4766C114.473 20.4766 115.651 20.737 116.602 21.2578C117.552 21.7786 118.333 22.5208 118.945 23.4844C119.557 24.4349 120.033 25.5612 120.371 26.8633C120.723 28.1523 120.996 29.5651 121.191 31.1016V32C120.996 33.4714 120.703 34.8385 120.312 36.1016C119.922 37.3646 119.408 38.4714 118.77 39.4219C118.132 40.3594 117.337 41.0885 116.387 41.6094C115.449 42.1302 114.329 42.3906 113.027 42.3906C111.725 42.3906 110.547 42.1237 109.492 41.5898C108.451 41.056 107.559 40.3073 106.816 39.3438C106.074 38.3802 105.501 37.2474 105.098 35.9453C104.707 34.6432 104.512 33.224 104.512 31.6875ZM110.137 31.2773V31.6875C110.137 32.5599 110.221 33.3737 110.391 34.1289C110.56 34.8841 110.82 35.5547 111.172 36.1406C111.536 36.7135 111.986 37.1628 112.52 37.4883C113.066 37.8008 113.711 37.957 114.453 37.957C115.482 37.957 116.322 37.7422 116.973 37.3125C117.624 36.8698 118.112 36.2643 118.438 35.4961C118.763 34.7279 118.952 33.8424 119.004 32.8398V30.2812C118.978 29.4609 118.867 28.7253 118.672 28.0742C118.477 27.4102 118.203 26.8438 117.852 26.375C117.5 25.9062 117.044 25.5417 116.484 25.2812C115.924 25.0208 115.26 24.8906 114.492 24.8906C113.75 24.8906 113.105 25.0599 112.559 25.3984C112.025 25.724 111.576 26.1732 111.211 26.7461C110.859 27.319 110.592 27.9961 110.41 28.7773C110.228 29.5456 110.137 30.3789 110.137 31.2773ZM127.305 31.6484V31.2383C127.305 29.6888 127.526 28.263 127.969 26.9609C128.411 25.6458 129.056 24.5065 129.902 23.543C130.749 22.5794 131.79 21.8307 133.027 21.2969C134.264 20.75 135.684 20.4766 137.285 20.4766C138.887 20.4766 140.312 20.75 141.562 21.2969C142.812 21.8307 143.861 22.5794 144.707 23.543C145.566 24.5065 146.217 25.6458 146.66 26.9609C147.103 28.263 147.324 29.6888 147.324 31.2383V31.6484C147.324 33.1849 147.103 34.6107 146.66 35.9258C146.217 37.2279 145.566 38.3672 144.707 39.3438C143.861 40.3073 142.819 41.056 141.582 41.5898C140.345 42.1237 138.926 42.3906 137.324 42.3906C135.723 42.3906 134.297 42.1237 133.047 41.5898C131.81 41.056 130.762 40.3073 129.902 39.3438C129.056 38.3672 128.411 37.2279 127.969 35.9258C127.526 34.6107 127.305 33.1849 127.305 31.6484ZM132.93 31.2383V31.6484C132.93 32.5339 133.008 33.3607 133.164 34.1289C133.32 34.8971 133.568 35.5742 133.906 36.1602C134.258 36.7331 134.714 37.1823 135.273 37.5078C135.833 37.8333 136.517 37.9961 137.324 37.9961C138.105 37.9961 138.776 37.8333 139.336 37.5078C139.896 37.1823 140.345 36.7331 140.684 36.1602C141.022 35.5742 141.27 34.8971 141.426 34.1289C141.595 33.3607 141.68 32.5339 141.68 31.6484V31.2383C141.68 30.3789 141.595 29.5716 141.426 28.8164C141.27 28.0482 141.016 27.3711 140.664 26.7852C140.326 26.1862 139.876 25.7174 139.316 25.3789C138.757 25.0404 138.079 24.8711 137.285 24.8711C136.491 24.8711 135.814 25.0404 135.254 25.3789C134.707 25.7174 134.258 26.1862 133.906 26.7852C133.568 27.3711 133.32 28.0482 133.164 28.8164C133.008 29.5716 132.93 30.3789 132.93 31.2383Z" fill="white"/>
</g>
<defs>
<clipPath id="clip0_32_45">
<rect width="220" height="62" fill="white"/>
</clipPath>
</defs>
</svg>
