<svg width="27" height="25" viewBox="0 0 27 25" fill="none" xmlns="http://www.w3.org/2000/svg">
<path d="M11.25 15.5249L11.25 12.4199" stroke="#33363F" stroke-width="2" stroke-linecap="round"/>
<path d="M15.75 15.5249L15.75 12.4199" stroke="#33363F" stroke-width="2" stroke-linecap="round"/>
<path d="M3.375 7.24512H23.625V7.24512C22.3394 7.24512 21.6965 7.24512 21.2218 7.52966C20.9397 7.69875 20.7036 7.9348 20.5345 8.21691C20.25 8.69164 20.25 9.33447 20.25 10.6201V16.7001C20.25 18.5857 20.25 19.5285 19.6642 20.1143C19.0784 20.7001 18.1356 20.7001 16.25 20.7001H10.75C8.86438 20.7001 7.92157 20.7001 7.33579 20.1143C6.75 19.5285 6.75 18.5857 6.75 16.7001V10.6201C6.75 9.33447 6.75 8.69164 6.46546 8.21691C6.29637 7.9348 6.06031 7.69875 5.77821 7.52966C5.30347 7.24512 4.66065 7.24512 3.375 7.24512V7.24512Z" stroke="#33363F" stroke-width="2" stroke-linecap="round"/>
<path d="M11.3267 3.48854C11.4549 3.3785 11.7373 3.28127 12.1303 3.21192C12.5232 3.14257 13.0047 3.10498 13.5 3.10498C13.9953 3.10498 14.4768 3.14257 14.8697 3.21192C15.2627 3.28127 15.5451 3.3785 15.6733 3.48854" stroke="#33363F" stroke-width="2" stroke-linecap="round"/>
</svg>
