<svg width="200" height="60" viewBox="0 0 200 60" fill="none" xmlns="http://www.w3.org/2000/svg">
<g clip-path="url(#clip0_2_9)">
<path d="M192.857 0H7.14286C3.19797 0 0 3.53459 0 7.89474V52.1053C0 56.4654 3.19797 60 7.14286 60H192.857C196.802 60 200 56.4654 200 52.1053V7.89474C200 3.53459 196.802 0 192.857 0Z" fill="#1B1D21"/>
<path d="M34.2876 44.2099L32.4191 38.3486H21.6173L19.7488 44.2099H14.2857L23.7528 15.7895H30.2838L39.7509 44.2099H34.2876ZM23.1825 33.4119H30.8523L27.0263 21.3551L23.1825 33.4119ZM54.3065 15.7895C59.3427 15.7895 62.4746 19.9199 62.4746 24.9746C62.4746 30.1475 59.3425 34.0222 54.3065 34.0222H48.9501V44.2105H43.6114V15.7901L54.3065 15.7895ZM53.4167 29.0847C56.086 29.0847 57.3317 27.4522 57.3317 24.8953C57.3317 22.4367 56.086 20.7255 53.4167 20.7255H48.9501V29.0847H53.4167ZM82.1746 44.2099L74.1844 32.1334H72.298V44.2099H66.9593V15.7895H72.298V26.9613H74.1131L82.1744 15.7895H88.6874L78.7219 29.3804L88.9899 44.2105L82.1746 44.2099Z" fill="#48D87F"/>
<path d="M104.571 43.8419V16.1769H108.767V43.8419H104.571ZM132.884 16.1769H137.079V43.8419H132.375L120.088 22.7346V43.8419H115.928V16.1769H120.58L132.884 37.1492V16.1769ZM158.405 20.309H148.488V27.9527H157.088V32.0655H148.488V43.8413H144.24V16.1764H158.405V20.309Z" fill="white"/>
<path d="M187.912 31.8333C187.912 35.5906 186.612 39.1939 184.298 41.8507C181.984 44.5074 178.846 46 175.573 46C172.301 46 169.162 44.5074 166.848 41.8507C164.534 39.1939 163.234 35.5906 163.234 31.8333L169.209 31.8333C169.209 33.771 169.88 35.6294 171.073 36.9996C172.267 38.3697 173.885 39.1395 175.573 39.1395C177.261 39.1395 178.879 38.3697 180.073 36.9996C181.266 35.6294 181.937 33.771 181.937 31.8333H187.912Z" fill="#48D87F"/>
<path d="M163.234 29C163.234 25.2428 164.534 21.6394 166.848 18.9827C169.162 16.3259 172.301 14.8333 175.573 14.8333C178.846 14.8333 181.984 16.3259 184.298 18.9827C186.612 21.6394 187.912 25.2428 187.912 29L175.573 29L163.234 29Z" fill="#48D87F"/>
<circle cx="169.25" cy="23.25" r="1.25" fill="white"/>
<circle cx="181.25" cy="23.25" r="1.25" fill="white"/>
<rect width="2.65688" height="10.6275" rx="1.32844" transform="matrix(0.656795 -0.754069 0.656795 0.754069 162 14.0035)" fill="#48D87F"/>
<rect width="2.65688" height="10.6275" rx="1.32844" transform="matrix(0.656795 0.754069 -0.656795 0.754069 186.255 12)" fill="#48D87F"/>
</g>
<defs>
<clipPath id="clip0_2_9">
<rect width="200" height="60" fill="white"/>
</clipPath>
</defs>
</svg>
