<svg width="149" height="25" viewBox="0 0 149 25" fill="none" xmlns="http://www.w3.org/2000/svg">
<path d="M6.03409 24H0.761364L8.79545 0.727272H15.1364L23.1591 24H17.8864L12.0568 6.04545H11.875L6.03409 24ZM5.70455 14.8523H18.1591V18.6932H5.70455V14.8523ZM25.9602 24V0.727272H35.142C36.9072 0.727272 38.411 1.06439 39.6534 1.73864C40.8958 2.4053 41.8428 3.33333 42.4943 4.52273C43.1534 5.70454 43.483 7.06818 43.483 8.61364C43.483 10.1591 43.1496 11.5227 42.483 12.7045C41.8163 13.8864 40.8504 14.8068 39.5852 15.4659C38.3277 16.125 36.8049 16.4545 35.017 16.4545H29.1648V12.5114H34.2216C35.1686 12.5114 35.9489 12.3485 36.5625 12.0227C37.1837 11.6894 37.6458 11.2311 37.9489 10.6477C38.2595 10.0568 38.4148 9.37879 38.4148 8.61364C38.4148 7.84091 38.2595 7.16667 37.9489 6.59091C37.6458 6.00757 37.1837 5.55682 36.5625 5.23864C35.9413 4.91288 35.1534 4.75 34.1989 4.75H30.8807V24H25.9602ZM46.679 24V0.727272H51.5994V10.9886H51.9062L60.2812 0.727272H66.179L57.5426 11.1477L66.2812 24H60.3949L54.0199 14.4318L51.5994 17.3864V24H46.679ZM81.0682 0.727272V24H76.1477V0.727272H81.0682ZM104.582 0.727272V24H100.332L90.2074 9.35227H90.0369V24H85.1165V0.727272H89.4347L99.4801 15.3636H99.6847V0.727272H104.582ZM108.648 24V0.727272H124.057V4.78409H113.568V10.3295H123.034V14.3864H113.568V24H108.648ZM148.753 12.3636C148.753 14.9015 148.272 17.0606 147.31 18.8409C146.355 20.6212 145.052 21.9811 143.401 22.9205C141.757 23.8523 139.908 24.3182 137.855 24.3182C135.787 24.3182 133.931 23.8485 132.287 22.9091C130.643 21.9697 129.344 20.6098 128.389 18.8295C127.435 17.0492 126.957 14.8939 126.957 12.3636C126.957 9.82576 127.435 7.66667 128.389 5.88636C129.344 4.10606 130.643 2.75 132.287 1.81818C133.931 0.878787 135.787 0.40909 137.855 0.40909C139.908 0.40909 141.757 0.878787 143.401 1.81818C145.052 2.75 146.355 4.10606 147.31 5.88636C148.272 7.66667 148.753 9.82576 148.753 12.3636ZM143.764 12.3636C143.764 10.7197 143.518 9.33333 143.026 8.20455C142.541 7.07576 141.855 6.2197 140.969 5.63636C140.082 5.05303 139.045 4.76136 137.855 4.76136C136.666 4.76136 135.628 5.05303 134.741 5.63636C133.855 6.2197 133.166 7.07576 132.673 8.20455C132.188 9.33333 131.946 10.7197 131.946 12.3636C131.946 14.0076 132.188 15.3939 132.673 16.5227C133.166 17.6515 133.855 18.5076 134.741 19.0909C135.628 19.6742 136.666 19.9659 137.855 19.9659C139.045 19.9659 140.082 19.6742 140.969 19.0909C141.855 18.5076 142.541 17.6515 143.026 16.5227C143.518 15.3939 143.764 14.0076 143.764 12.3636Z" fill="black"/>
</svg>
