<svg width="200" height="60" viewBox="0 0 200 60" fill="none" xmlns="http://www.w3.org/2000/svg">
<g clip-path="url(#clip0_2_9)">
<path d="M172.714 1H9.28571C5.81421 1 3 4.53459 3 8.89474V53.1053C3 57.4654 5.81421 61 9.28571 61H172.714C176.186 61 179 57.4654 179 53.1053V8.89474C179 4.53459 176.186 1 172.714 1Z" fill="white"/>
<rect x="0.128818" width="2.40508" height="10.2203" rx="1.20254" transform="matrix(0.644091 -0.764949 0.644091 0.764949 147.046 13.0913)" fill="#48D87F" stroke="black" stroke-width="0.2"/>
<rect y="0.15299" width="2.40508" height="10.2203" rx="1.20254" transform="matrix(0.644091 0.764949 -0.644091 0.764949 170.421 11.036)" fill="#48D87F" stroke="black" stroke-width="0.2"/>
<mask id="path-4-inside-1_2_9" fill="white">
<path d="M148.186 27.9091C148.186 24.1719 149.436 20.5879 151.662 17.9453C153.887 15.3028 156.904 13.8182 160.051 13.8182C163.198 13.8182 166.216 15.3028 168.441 17.9453C170.666 20.5879 171.916 24.1719 171.916 27.9091L160.051 27.9091L148.186 27.9091Z"/>
</mask>
<path d="M148.186 27.9091C148.186 24.1719 149.436 20.5879 151.662 17.9453C153.887 15.3028 156.904 13.8182 160.051 13.8182C163.198 13.8182 166.216 15.3028 168.441 17.9453C170.666 20.5879 171.916 24.1719 171.916 27.9091L160.051 27.9091L148.186 27.9091Z" fill="#48D87F" stroke="black" stroke-width="0.4" mask="url(#path-4-inside-1_2_9)"/>
<path d="M166.612 22.1898C166.612 22.8245 166.115 23.3332 165.51 23.3332C164.904 23.3332 164.408 22.8245 164.408 22.1898C164.408 21.5552 164.904 21.0465 165.51 21.0465C166.115 21.0465 166.612 21.5552 166.612 22.1898Z" fill="white" stroke="black" stroke-width="0.2"/>
<path d="M155.073 22.1898C155.073 22.8245 154.577 23.3332 153.971 23.3332C153.366 23.3332 152.869 22.8245 152.869 22.1898C152.869 21.5552 153.366 21.0465 153.971 21.0465C154.577 21.0465 155.073 21.5552 155.073 22.1898Z" fill="white" stroke="black" stroke-width="0.2"/>
<path d="M11.9446 44H6.8821L16.0994 17.8182H21.9545L31.1847 44H26.1222L19.1293 23.1875H18.9247L11.9446 44ZM12.1108 33.7344H25.9176V37.544H12.1108V33.7344ZM34.6332 44V17.8182H44.4514C46.4627 17.8182 48.1502 18.1932 49.5139 18.9432C50.886 19.6932 51.9215 20.7244 52.6204 22.0369C53.3278 23.3409 53.6815 24.8239 53.6815 26.4858C53.6815 28.1648 53.3278 29.6562 52.6204 30.9602C51.913 32.2642 50.869 33.2912 49.4883 34.0412C48.1076 34.7827 46.4073 35.1534 44.3874 35.1534H37.8803V31.2543H43.7482C44.9244 31.2543 45.8874 31.0497 46.6374 30.6406C47.3874 30.2315 47.9414 29.669 48.2994 28.9531C48.6658 28.2372 48.8491 27.4148 48.8491 26.4858C48.8491 25.5568 48.6658 24.7386 48.2994 24.0312C47.9414 23.3239 47.3832 22.7741 46.6246 22.3821C45.8746 21.9815 44.9073 21.7812 43.7227 21.7812H39.3761V44H34.6332ZM57.8011 44V17.8182H62.544V29.848H62.8636L73.0781 17.8182H78.8693L68.7443 29.5668L78.9588 44H73.2571L65.446 32.7756L62.544 36.2017V44H57.8011ZM95.837 17.8182V44H91.0941V17.8182H95.837ZM122.489 17.8182V44H118.27L105.933 26.1662H105.716V44H100.973V17.8182H105.217L117.541 35.6648H117.771V17.8182H122.489ZM127.657 44V17.8182H144.429V21.794H132.4V28.902H143.279V32.8778H132.4V44H127.657Z" fill="black"/>
<path fill-rule="evenodd" clip-rule="evenodd" d="M148.231 28C148.079 28.9549 148 29.9424 148 30.9531C148 39.2633 153.373 46 160 46C166.627 46 172 39.2633 172 30.9531C172 29.9424 171.921 28.9549 171.769 28H167.699C167.895 28.9537 168 29.96 168 31C168.5 37 164.418 42 160 42C155.582 42 151.5 37.5 152 31C152 29.96 152.105 28.9537 152.301 28H148.231Z" fill="black"/>
</g>
<defs>
<clipPath id="clip0_2_9">
<rect width="200" height="60" fill="white"/>
</clipPath>
</defs>
</svg>
