<svg width="200" height="60" viewBox="0 0 200 60" fill="none" xmlns="http://www.w3.org/2000/svg">
<g clip-path="url(#clip0_2_9)">
<path d="M192.857 0H7.14286C3.19797 0 0 3.53459 0 7.89474V52.1053C0 56.4654 3.19797 60 7.14286 60H192.857C196.802 60 200 56.4654 200 52.1053V7.89474C200 3.53459 196.802 0 192.857 0Z" fill="#1B1D21"/>
<path d="M34.2876 44.2099L32.4191 38.3486H21.6173L19.7488 44.2099H14.2857L23.7528 15.7895H30.2838L39.7509 44.2099H34.2876ZM23.1825 33.4119H30.8523L27.0263 21.3551L23.1825 33.4119ZM54.3065 15.7895C59.3427 15.7895 62.4746 19.9199 62.4746 24.9746C62.4746 30.1475 59.3425 34.0222 54.3065 34.0222H48.9501V44.2105H43.6114V15.7901L54.3065 15.7895ZM53.4167 29.0847C56.086 29.0847 57.3317 27.4522 57.3317 24.8953C57.3317 22.4367 56.086 20.7255 53.4167 20.7255H48.9501V29.0847H53.4167ZM82.1746 44.2099L74.1844 32.1334H72.298V44.2099H66.9593V15.7895H72.298V26.9613H74.1131L82.1744 15.7895H88.6874L78.7219 29.3804L88.9899 44.2105L82.1746 44.2099Z" fill="#545B65"/>
<path d="M103.571 43.8419V16.177H107.767V43.8419H103.571ZM131.884 16.177H136.079V43.8419H131.375L119.088 22.7346V43.8419H114.928V16.177H119.58L131.884 37.1492V16.177ZM157.405 20.309H147.488V27.9527H156.088V32.0655H147.488V43.8413H143.24V16.1764H157.405V20.309ZM173.184 44.2105C165.988 44.2105 160.547 38.7592 160.547 29.9903C160.547 21.2408 165.988 15.7895 173.184 15.7895C180.363 15.7895 185.805 21.2408 185.805 29.9903C185.805 38.7592 180.363 44.2105 173.184 44.2105ZM173.184 39.9037C177.924 39.9037 181.627 36.2759 181.627 29.9904C181.627 23.7629 177.924 20.1157 173.184 20.1157C168.445 20.1157 164.742 23.7629 164.742 29.9904C164.742 36.2761 168.445 39.9037 173.184 39.9037Z" fill="white"/>
</g>
<defs>
<clipPath id="clip0_2_9">
<rect width="200" height="60" fill="white"/>
</clipPath>
</defs>
</svg>
