<svg width="200" height="60" viewBox="0 0 200 60" fill="none" xmlns="http://www.w3.org/2000/svg">
<g clip-path="url(#clip0_202_8)">
<mask id="mask0_202_8" style="mask-type:luminance" maskUnits="userSpaceOnUse" x="0" y="0" width="200" height="60">
<path d="M200 0H0V60H200V0Z" fill="white"/>
</mask>
<g mask="url(#mask0_202_8)">
<path d="M34.2876 44.2099L32.4191 38.3486H21.6173L19.7488 44.2099H14.2857L23.7528 15.7895H30.2838L39.7509 44.2099H34.2876ZM23.1825 33.4119H30.8523L27.0263 21.3551L23.1825 33.4119ZM54.3065 15.7895C59.3427 15.7895 62.4746 19.9199 62.4746 24.9746C62.4746 30.1475 59.3425 34.0222 54.3065 34.0222H48.95V44.2105H43.6114V15.7901L54.3065 15.7895ZM53.4167 29.0847C56.086 29.0847 57.3317 27.4522 57.3317 24.8953C57.3317 22.4367 56.086 20.7255 53.4167 20.7255H48.95V29.0847H53.4167ZM82.1745 44.2099L74.1844 32.1334H72.298V44.2099H66.9593V15.7895H72.298V26.9613H74.1131L82.1744 15.7895H88.6874L78.7219 29.3804L88.9899 44.2105L82.1745 44.2099Z" fill="#1B1D21"/>
<path d="M104.571 43.8419V16.177H108.767V43.8419H104.571ZM132.884 16.177H137.079V43.8419H132.375L120.088 22.7346V43.8419H115.928V16.177H120.58L132.884 37.1492V16.177ZM158.405 20.309H148.488V27.9527H157.088V32.0655H148.488V43.8413H144.24V16.1764H158.405V20.309Z" fill="#1B1D21"/>
<path d="M185.76 25.8H161.24C161.956 22.0113 163.784 18.7597 166.266 16.5958L166.412 16.4691L166.29 16.3192L163.127 12.4101L163.127 12.41C162.902 12.132 162.902 11.6674 163.127 11.3894C163.235 11.256 163.366 11.2 163.486 11.2C163.607 11.2 163.738 11.256 163.846 11.3893C163.846 11.3894 163.846 11.3894 163.846 11.3894L167.106 15.4184L167.107 15.4185C167.143 15.4633 167.174 15.5142 167.2 15.5704L167.299 15.7831L167.493 15.652C169.281 14.4467 171.326 13.764 173.5 13.764C175.667 13.764 177.709 14.4429 179.492 15.6422L179.685 15.7718L179.785 15.562C179.81 15.5084 179.839 15.4608 179.874 15.4187L179.874 15.4184L183.135 11.3894C183.135 11.3894 183.135 11.3894 183.135 11.3893C183.243 11.2561 183.374 11.2 183.494 11.2C183.615 11.2 183.746 11.256 183.854 11.3892C184.078 11.6673 184.078 12.1322 183.854 12.4102L180.698 16.3094L180.577 16.4594L180.722 16.5861C183.21 18.7499 185.043 22.0056 185.76 25.8Z" fill="#48D87F" stroke="black" stroke-width="0.4"/>
<path d="M169.879 23.4446C170.395 23.4446 170.814 22.9538 170.814 22.3483C170.814 21.7428 170.395 21.252 169.879 21.252C169.363 21.252 168.944 21.7428 168.944 22.3483C168.944 22.9538 169.363 23.4446 169.879 23.4446Z" fill="#FFE9E9"/>
<path d="M176.888 23.4446C177.404 23.4446 177.823 22.9538 177.823 22.3483C177.823 21.7428 177.404 21.252 176.888 21.252C176.372 21.252 175.953 21.7428 175.953 22.3483C175.953 22.9538 176.372 23.4446 176.888 23.4446Z" fill="white"/>
<path fill-rule="evenodd" clip-rule="evenodd" d="M161.241 26.4594C161.083 27.3899 161 28.3522 161 29.3371C161 37.4352 166.596 44 173.5 44C180.404 44 186 37.4352 186 29.3371C186 28.3522 185.917 27.3899 185.759 26.4594H182.883C183.088 27.3785 183.196 28.3429 183.196 29.3371C183.196 35.6188 178.855 40.7111 173.5 40.7111C168.145 40.7111 163.804 35.6188 163.804 29.3371C163.804 28.3429 163.912 27.3785 164.117 26.4594H161.241Z" fill="#1B1D21"/>
</g>
</g>
<defs>
<clipPath id="clip0_202_8">
<rect width="200" height="60" fill="white"/>
</clipPath>
</defs>
</svg>

