<svg width="200" height="60" viewBox="0 0 200 60" fill="none" xmlns="http://www.w3.org/2000/svg">
<g clip-path="url(#clip0_103_2)">
<mask id="mask0_103_2" style="mask-type:luminance" maskUnits="userSpaceOnUse" x="0" y="0" width="200" height="60">
<path d="M200 0H0V60H200V0Z" fill="white"/>
</mask>
<g mask="url(#mask0_103_2)">
<path d="M192.857 0H7.14286C3.19797 0 0 3.53459 0 7.89474V52.1053C0 56.4654 3.19797 60 7.14286 60H192.857C196.802 60 200 56.4654 200 52.1053V7.89474C200 3.53459 196.802 0 192.857 0Z" fill="white"/>
<path d="M34.2876 44.2099L32.4191 38.3486H21.6173L19.7488 44.2099H14.2857L23.7528 15.7895H30.2838L39.7509 44.2099H34.2876ZM23.1825 33.4119H30.8523L27.0263 21.3551L23.1825 33.4119ZM54.3065 15.7895C59.3427 15.7895 62.4746 19.9199 62.4746 24.9746C62.4746 30.1475 59.3425 34.0222 54.3065 34.0222H48.95V44.2105H43.6114V15.7901L54.3065 15.7895ZM53.4167 29.0847C56.086 29.0847 57.3317 27.4522 57.3317 24.8953C57.3317 22.4367 56.086 20.7255 53.4167 20.7255H48.95V29.0847H53.4167ZM82.1745 44.2099L74.1844 32.1334H72.298V44.2099H66.9593V15.7895H72.298V26.9613H74.1131L82.1744 15.7895H88.6874L78.7219 29.3804L88.9899 44.2105L82.1745 44.2099Z" fill="#48D87F"/>
<path d="M104.571 43.8419V16.177H108.767V43.8419H104.571ZM132.884 16.177H137.079V43.8419H132.375L120.088 22.7346V43.8419H115.928V16.177H120.58L132.884 37.1492V16.177ZM158.405 20.309H148.488V27.9527H157.088V32.0655H148.488V43.8413H144.24V16.1764H158.405V20.309Z" fill="black"/>
<path d="M180.515 17.0443C182.95 19.0544 184.733 22.0841 185.412 25.6085H161.588C162.266 22.0894 164.045 19.0634 166.474 17.0532L166.552 16.9885L166.486 16.9113L163.441 13.3387L163.441 13.3387C163.199 13.055 163.199 12.5894 163.441 12.3057C163.675 12.0314 164.046 12.0314 164.28 12.3057L167.419 15.9879L167.419 15.9879C167.459 16.0348 167.492 16.0872 167.52 16.1438L167.569 16.2446L167.664 16.1841C169.399 15.0736 171.386 14.4432 173.5 14.4432C175.608 14.4432 177.591 15.0701 179.322 16.1751L179.416 16.2348L179.465 16.1355C179.492 16.0817 179.524 16.0324 179.562 15.988L179.562 15.9879L182.701 12.3057C182.701 12.3057 182.701 12.3057 182.701 12.3057C182.935 12.0314 183.307 12.0314 183.541 12.3056C183.782 12.5893 183.782 13.0551 183.541 13.3388L180.503 16.9023L180.437 16.9796L180.515 17.0443Z" fill="#48D87F" stroke="black" stroke-width="0.2"/>
<path d="M169.879 23.4446C170.395 23.4446 170.814 22.9538 170.814 22.3483C170.814 21.7428 170.395 21.252 169.879 21.252C169.363 21.252 168.944 21.7428 168.944 22.3483C168.944 22.9538 169.363 23.4446 169.879 23.4446Z" fill="black"/>
<path d="M177.323 22.3483C177.323 22.7554 177.056 22.9446 176.888 22.9446C176.72 22.9446 176.453 22.7554 176.453 22.3483C176.453 21.9412 176.72 21.752 176.888 21.752C177.056 21.752 177.323 21.9412 177.323 22.3483Z" fill="white" stroke="black"/>
<path fill-rule="evenodd" clip-rule="evenodd" d="M161.241 26.4594C161.083 27.3899 161 28.3522 161 29.3371C161 37.4352 166.596 44 173.5 44C180.404 44 186 37.4352 186 29.3371C186 28.3522 185.917 27.3899 185.759 26.4594H182.883C183.088 27.3785 183.196 28.3429 183.196 29.3371C183.196 35.6188 178.855 40.7111 173.5 40.7111C168.145 40.7111 163.804 35.6188 163.804 29.3371C163.804 28.3429 163.912 27.3785 164.117 26.4594H161.241Z" fill="black"/>
</g>
</g>
<defs>
<clipPath id="clip0_103_2">
<rect width="200" height="60" fill="white"/>
</clipPath>
</defs>
</svg>
